# xmcd CD database file
#
# Track frame offsets:
#	150
#	14686
#	29902
#	49483
#	60128
#	72653
#	77556
#	80816
#	86514
#	88170
#	94717
#	100635
#	104157
#	115191
#	129885
#	149485
#	165363
#	170068
#	173665
#	183624
#	186696
#	191498
#	196371
#	210793
#
# Disc length: 2967 seconds
#
# Revision: 8
# Processed by: cddbd v1.5.2PL0 Copyright (c) Steve Scherf et al.
# Submitted via: CDex 1.51
#
DISCID=590b9518
DTITLE=Various Artist - Jazz in Paris - Jazz and Cinéma  [Vol.2]
DYEAR=2000
DGENRE=Jazz
TTITLE0=Jazz at the Philharmonic ~ Les tricheurs - Les tricheurs  {Enregistré le 1er mai 1958 à Paris}
TTITLE1=Jazz at the Philharmonic ~ Les tricheurs - Clo's blues
TTITLE2=Jazz at the Philharmonic ~ Les tricheurs - Phil's tune
TTITLE3=Jazz at the Philharmonic ~ Les tricheurs - Mic's jump
TTITLE4=Art Blakey and Benny Golson ~ Des femmes disparaissent - Générique  {Enregistré en décembre 1958 à Paris}
TTITLE5=Art Blakey and Benny Golson ~ Des femmes disparaissent - Pierre et Béatrice
TTITLE6=Art Blakey and Benny Golson ~ Des femmes disparaissent - Nasol
TTITLE7=Art Blakey and Benny Golson ~ Des femmes disparaissent - Tom
TTITLE8=Art Blakey and Benny Golson ~ Des femmes disparaissent - Poursuite dans la ruelle
TTITLE9=Art Blakey and Benny Golson ~ Des femmes disparaissent - Ne chuchote pas
TTITLE10=Art Blakey and Benny Golson ~ Des femmes disparaissent - Mambo dans la voiture
TTITLE11=Art Blakey and Benny Golson ~ Des femmes disparaissent - Merlin
TTITLE12=Art Blakey and Benny Golson ~ Des femmes disparaissent - Juste pour eux seuls
TTITLE13=Art Blakey and Benny Golson ~ Des femmes disparaissent - Blues pour Doudou
TTITLE14=Art Blakey and Benny Golson ~ Des femmes disparaissent - Blues pour Marcel
TTITLE15=Art Blakey and Benny Golson ~ Des femmes disparaissent - Blues pour Vava
TTITLE16=Art Blakey and Benny Golson ~ Des femmes disparaissent - Pasquier
TTITLE17=Art Blakey and Benny Golson ~ Des femmes disparaissent - Quaglio
TTITLE18=Art Blakey and Benny Golson ~ Des femmes disparaissent - La divorcée de Léo Fall
TTITLE19=Art Blakey and Benny Golson ~ Des femmes disparaissent - Suspense, Tom et Nasol
TTITLE20=Art Blakey and Benny Golson ~ Des femmes disparaissent - Des femmes disparaissent
TTITLE21=Art Blakey and Benny Golson ~ Des femmes disparaissent - Final pour Pierre et Béatrice
TTITLE22=Georges Arvanitas quintet ~ La bride sur le cou - La bride sur le cou  {Enregistré le 19 avril 1961 à Paris}
TTITLE23=Georges Arvanitas quintet ~ La bride sur le cou - Brigitte strip blues
EXTD=This CD forms part of the Jazz in Paris series (vol 50 of 50 vols) by Verve/GItanes Jazz Productions.  This is volume 2 of the Jazz and Cinéma section of the Jazz in Paris series.  Tracks were digitally remastered in 24-bit by Alexis Frenkel and Chris
EXTD=tophe Hénault at Art et Son studio, Paris.  013 044-2 (LC 00699]\n\nTracks 01 - 04  -- Les tricheurs - original soundtrack of Marcel Carné's movie -- originally recorded on 1 May 1958 at the Hoche Sdutio, Paris.  Jazz at the Philharmonic were: Roy E
EXTD=ldridge (1,3), Dizzy Gileespie (4) - trompette - Stand Getz (1), Coleman Hawkins (2) - saxophone ténor - Oscar Peterson - piano - Herb Ellis - guitar - Ray Brown - Contrebasse - Gus Johnson - batterie.  Réedition du EP Barclay 74 024.\n\nTracks 05 - 22 -
EXTD=Les femmes disparaissent - original soundtrack of Eduourd Molinaro's movie composed by Art Blakey and Benny Goilson except tracks 9,14,15,16,17&18 by Art Blakey only -- recorded December 1958 in Paris.  Art Blakey and the Messengers were: Lee Morg
EXTD=an - trompette - Benny Golson - saxophone ténor - Bobby Timmons - piano - Jymie Merrit - contrebass - Art Blakey - batterie.  Réedition du LP 25cm Fontana 660 224. \n\nTracks 23 -24 -- La bride sur le cou - original soundtrack of Roger Vadim's movie wit
EXTD=h all compositions by James Campbell -- enrégistré le 19 Avril 1961 au studio Hoche, Paris.  Georges Arvanitas quintet were: Bernard Vitet - bugle - François Jeanneau - saxophone ténor - Georges Arvanitas - piano - Louis Trussardi - contrebasse - Michel
EXTD=Babault - batterie.   Réedition partielle du EP Barclay 72 471. YEAR: 2000
EXTT0=
EXTT1=
EXTT2=
EXTT3=
EXTT4=
EXTT5=
EXTT6=
EXTT7=
EXTT8=
EXTT9=
EXTT10=
EXTT11=
EXTT12=
EXTT13=
EXTT14=
EXTT15=
EXTT16=
EXTT17=
EXTT18=
EXTT19=
EXTT20=
EXTT21=
EXTT22=
EXTT23=
PLAYORDER=
